<?xml version="1.0" encoding="UTF-8"?>
<svg id="Layer_1" data-name="Layer 1" xmlns="http://www.w3.org/2000/svg" viewBox="0 0 32.11 32">
  <defs>
    <style>
      .cls-1 {
        stroke: #000;
        stroke-miterlimit: 10;
        stroke-width: .11px;
      }

      .cls-2 {
        fill: #ff9a00;
      }
    </style>
  </defs>
  <circle class="cls-2" cx="16.06" cy="16" r="16"/>
  <path class="cls-1" d="M32.06,16.39c0,1.47-1.24,2.8-2.6,2.37-.1-.03-.2-.07-.3-.12-.22-.11-.36-.31-.56-.44-.2-.14-.4-.22-.6-.18-.08.01-.16.04-.24.09-.32.19-.49.48-.48.91,0,.15,0,.31,0,.46v1.43s0,.02,0,.03c0,.05,0,.11,0,.16h0s0,0,0,0c-.04.47-.35.82-.71.93H5.6c-.53-.04-.79-.38-.79-1.02,0-.45,0-.91,0-1.36,0-.24,0-.49,0-.73,0-.06,0-.12-.02-.18-.1-.57-.66-.92-1.14-.65-.11.06-.23.14-.33.23-.97.85-2.24.59-2.91-.6-.24-.43-.36-.87-.36-1.31s.1-.84.3-1.24c.42-.87,1.13-1.29,2.01-1.25.4.02.74.24,1.03.55.28.31.6.42.95.28.28-.1.44-.34.45-.69,0-.04,0-.08,0-.12,0-.1,0-.2,0-.29,0-.27,0-.53,0-.8,0-.21,0-.43,0-.64,0-.58.31-.99.8-1.05h4.68c.37.05.49.25.57.79.04.3.03.6,0,.9-.03.21-.07.42-.12.62-.02.07-.04.13-.07.18-.11.2-.3.33-.49.44-.53.29-.95.69-1.11,1.38-.21.94.15,1.63.71,2.23.01.01.02.02.04.04,1.07,1.11,2.94.89,3.71-.84.38-.85.07-1.97-.71-2.29-.37-.15-.64-.37-.81-.65-.06-.09-.11-.2-.14-.31-.08-.23-.11-.5-.11-.8,0-.04,0-.08,0-.12.02-.31,0-.61.07-.92.09-.43.26-.62.6-.66.03,0,.07,0,.11,0,.38,0,.76,0,1.14,0,.37,0,.71-.12.88-.51.18-.42.12-.84-.17-1.2-.51-.65-.64-1.4-.34-2.19.51-1.34,2.02-1.87,3.07-1.14.92.65,1.29,1.75.88,2.76-.08.21-.21.39-.34.56-.27.33-.35.72-.19,1.13.13.35.38.51.69.56.05,0,.1.01.16.01.1,0,.19,0,.29,0,.38,0,.77.01,1.14.01.32.07.43.27.5.78.04.3.03.6,0,.9-.03.21-.07.42-.12.62-.02.07-.04.13-.07.18-.11.2-.3.33-.49.44-.53.29-.95.69-1.11,1.38-.09.4-.08.75,0,1.07.12.45.39.84.73,1.19,1.07,1.11,2.94.89,3.71-.84.03-.08.06-.16.09-.24.23-.81-.08-1.76-.8-2.05-.5-.2-.81-.52-.96-.95-.08-.23-.11-.5-.11-.8,0-.04,0-.08,0-.12.02-.31,0-.61.07-.92.09-.43.26-.62.6-.66h4.67c.55.1.76.49.79,1.18v1.23s0,.06,0,.08c0,.1,0,.2,0,.3,0,.08,0,.16.01.24.03.23.14.41.34.52.29.16.59.18.87-.05.24-.19.45-.46.73-.58.08-.03.15-.06.23-.08,1.18-.35,2.33.53,2.56,1.89.03.16.04.32.04.49Z"/>
</svg>