<?xml version="1.0" encoding="UTF-8"?>
<svg id="Layer_1" data-name="Layer 1" xmlns="http://www.w3.org/2000/svg" viewBox="0 0 16.06 14.17">
  <defs>
    <style>
      .cls-1 {
        stroke: #000;
        stroke-miterlimit: 10;
        stroke-width: .06px;
      }

      .cls-2 {
        fill: #ff9a00;
      }
    </style>
  </defs>
  <circle class="cls-2" cx="8.03" cy="7.08" r="7.08"/>
  <path class="cls-1" d="M16.03,7.28c0,.74-.62,1.4-1.3,1.18-.05-.02-.1-.04-.15-.06-.11-.05-.18-.15-.28-.22-.1-.07-.2-.11-.3-.09-.04,0-.08.02-.12.04-.16.09-.24.24-.24.45,0,.08,0,.15,0,.23v.72s0,0,0,.01c0,.03,0,.05,0,.08h0s0,0,0,0c-.02.23-.18.41-.36.47H2.8c-.26-.02-.39-.19-.39-.51,0-.23,0-.45,0-.68,0-.12,0-.24,0-.37,0-.03,0-.06,0-.09-.05-.28-.33-.46-.57-.32-.06.03-.11.07-.16.12-.49.43-1.12.29-1.46-.3-.12-.22-.18-.44-.18-.66s.05-.42.15-.62c.21-.43.57-.64,1-.63.2,0,.37.12.51.28.14.15.3.21.48.14.14-.05.22-.17.22-.35,0-.02,0-.04,0-.06,0-.05,0-.1,0-.15,0-.13,0-.27,0-.4,0-.11,0-.21,0-.32,0-.29.15-.5.4-.53h2.34c.19.03.25.13.28.4.02.15.02.3,0,.45-.01.1-.03.21-.06.31,0,.03-.02.06-.04.09-.05.1-.15.17-.24.22-.26.15-.48.34-.55.69-.11.47.07.82.35,1.11,0,0,.01.01.02.02.54.56,1.47.45,1.86-.42.19-.42.04-.99-.35-1.14-.19-.08-.32-.18-.41-.32-.03-.05-.05-.1-.07-.15-.04-.12-.06-.25-.05-.4,0-.02,0-.04,0-.06,0-.15,0-.31.03-.46.04-.22.13-.31.3-.33.02,0,.03,0,.05,0,.19,0,.38,0,.57,0,.18,0,.36-.06.44-.25.09-.21.06-.42-.08-.6-.25-.32-.32-.7-.17-1.09.26-.67,1.01-.94,1.54-.57.46.32.64.87.44,1.38-.04.11-.1.2-.17.28-.14.17-.17.36-.09.57.07.18.19.26.34.28.03,0,.05,0,.08,0,.05,0,.1,0,.14,0,.19,0,.38,0,.57,0,.16.03.21.14.25.39.02.15.02.3,0,.45-.01.1-.03.21-.06.31,0,.03-.02.06-.04.09-.05.1-.15.17-.24.22-.26.15-.48.34-.55.69-.04.2-.04.38,0,.54.06.23.2.42.37.6.54.56,1.47.45,1.86-.42.02-.04.03-.08.04-.12.12-.4-.04-.88-.4-1.02-.25-.1-.4-.26-.48-.48-.04-.12-.06-.25-.05-.4,0-.02,0-.04,0-.06,0-.15,0-.31.03-.46.04-.22.13-.31.3-.33h2.34c.27.05.38.24.4.59v.62s0,.03,0,.04c0,.05,0,.1,0,.15,0,.04,0,.08,0,.12.02.11.07.2.17.26.15.08.29.09.44-.02.12-.1.22-.23.37-.29.04-.02.08-.03.11-.04.59-.18,1.17.27,1.28.95.01.08.02.16.02.24Z"/>
</svg>