<?xml version="1.0" encoding="UTF-8"?>
<svg id="Layer_1" data-name="Layer 1" xmlns="http://www.w3.org/2000/svg" viewBox="0 0 640.47 309.54">
  <defs>
    <style>
      .cls-1 {
        fill: #fff;
        stroke-width: .56px;
      }

      .cls-1, .cls-2 {
        stroke: #000;
        stroke-miterlimit: 10;
      }

      .cls-2 {
        stroke-width: .12px;
      }
    </style>
  </defs>
  <rect class="cls-1" x="303.24" y=".28" width="36" height="36" rx="8.59" ry="8.59"/>
  <path class="cls-2" d="M338.18,18.94c0,1.56-1.31,2.96-2.75,2.51-.1-.03-.21-.07-.31-.13-.23-.11-.38-.33-.59-.47-.21-.14-.42-.23-.64-.19-.08.01-.17.04-.25.09-.34.2-.51.51-.51.96,0,.16,0,.32,0,.48v1.52s0,.02,0,.03c0,.06,0,.12,0,.17h0s0,.01,0,.01c-.04.5-.37.87-.75.99h-22.2c-.56-.04-.83-.4-.83-1.08,0-.48,0-.96,0-1.44,0-.26,0-.52,0-.77,0-.06,0-.13-.02-.19-.1-.6-.7-.97-1.21-.69-.12.07-.24.15-.35.25-1.03.9-2.38.62-3.08-.63-.26-.46-.38-.92-.38-1.39s.11-.89.32-1.31c.45-.92,1.2-1.37,2.13-1.33.43.02.79.25,1.09.59.29.33.63.44,1.01.3.29-.11.47-.36.47-.73,0-.04,0-.08,0-.12,0-.1,0-.21,0-.31,0-.28,0-.57,0-.85,0-.23,0-.45,0-.68,0-.61.33-1.05.85-1.12h4.95c.39.06.52.27.6.84.04.32.04.64,0,.95-.03.22-.07.44-.13.66-.02.07-.04.13-.07.19-.11.21-.31.35-.52.46-.56.31-1.01.73-1.17,1.46-.23,1,.16,1.73.75,2.36.01.01.03.03.04.04,1.13,1.18,3.12.94,3.93-.89.4-.9.08-2.09-.75-2.42-.4-.16-.68-.39-.86-.68-.06-.1-.11-.21-.15-.32-.08-.25-.12-.53-.12-.85,0-.04,0-.09,0-.13.02-.33,0-.65.07-.97.09-.46.27-.66.63-.69.04,0,.07,0,.11,0,.4,0,.8,0,1.2,0,.39,0,.75-.12.93-.54.19-.44.12-.88-.18-1.27-.54-.69-.68-1.48-.36-2.32.54-1.42,2.13-1.98,3.25-1.2.98.68,1.36,1.85.93,2.93-.09.22-.22.42-.36.59-.29.35-.37.76-.2,1.2.14.37.41.55.73.59.05,0,.11.01.17.01.1,0,.2,0,.31,0,.41,0,.81.01,1.2.01.34.07.46.29.53.83.04.32.04.64,0,.95-.03.22-.07.44-.13.66-.02.07-.04.13-.07.19-.11.21-.31.35-.52.46-.56.31-1.01.73-1.17,1.46-.1.42-.08.79,0,1.13.13.48.42.89.78,1.26,1.13,1.18,3.12.94,3.93-.89.04-.08.07-.17.09-.25.24-.86-.09-1.87-.84-2.17-.53-.21-.86-.55-1.01-1.01-.09-.25-.12-.53-.12-.85,0-.04,0-.09,0-.13.02-.33,0-.65.07-.97.09-.46.27-.66.63-.69h4.95c.58.11.8.52.84,1.25v1.3s0,.06,0,.09c0,.11,0,.21,0,.32,0,.09,0,.17.01.25.04.24.15.43.36.55.31.17.62.19.93-.05.26-.21.47-.48.77-.61.08-.03.16-.06.24-.09,1.25-.37,2.47.56,2.71,2,.03.17.04.34.04.52Z"/>
</svg> 