<?xml version="1.0" encoding="UTF-8"?>
<svg id="Layer_1" data-name="Layer 1" xmlns="http://www.w3.org/2000/svg" viewBox="312 0 17 17">
  <defs>
    <style>
      .cls-1 {
        stroke-width: .05px;
      }

      .cls-1, .cls-2 {
        stroke: #000;
        stroke-miterlimit: 10;
      }

      .cls-2 {
        fill: #fff;
        stroke-width: .25px;
      }
    </style>
  </defs>
  <rect class="cls-2" x="312.24" y=".12" width="16" height="16" rx="3.82" ry="3.82"/>
  <path class="cls-1" d="M327.77,8.42c0,.69-.58,1.32-1.22,1.11-.05-.01-.09-.03-.14-.06-.1-.05-.17-.14-.26-.21-.09-.06-.19-.1-.28-.09-.04,0-.07.02-.11.04-.15.09-.23.23-.23.43,0,.07,0,.14,0,.22v.67s0,0,0,.01c0,.03,0,.05,0,.08h0s0,0,0,0c-.02.22-.17.39-.33.44h-9.87c-.25-.02-.37-.18-.37-.48,0-.21,0-.43,0-.64,0-.11,0-.23,0-.34,0-.03,0-.06,0-.08-.05-.27-.31-.43-.54-.3-.05.03-.11.07-.15.11-.46.4-1.06.28-1.37-.28-.11-.2-.17-.41-.17-.62s.05-.39.14-.58c.2-.41.53-.61.95-.59.19,0,.35.11.48.26.13.15.28.2.45.13.13-.05.21-.16.21-.33,0-.02,0-.04,0-.05,0-.05,0-.09,0-.14,0-.13,0-.25,0-.38,0-.1,0-.2,0-.3,0-.27.15-.47.38-.5h2.2c.18.02.23.12.27.37.02.14.02.28,0,.42-.01.1-.03.2-.06.29,0,.03-.02.06-.03.09-.05.09-.14.16-.23.21-.25.14-.45.32-.52.65-.1.44.07.77.33,1.05,0,0,.01.01.02.02.5.52,1.39.42,1.75-.4.18-.4.03-.93-.33-1.08-.18-.07-.3-.17-.38-.3-.03-.04-.05-.09-.07-.14-.04-.11-.05-.24-.05-.38,0-.02,0-.04,0-.06,0-.14,0-.29.03-.43.04-.2.12-.29.28-.31.02,0,.03,0,.05,0,.18,0,.36,0,.54,0,.17,0,.34-.05.42-.24.09-.2.05-.39-.08-.56-.24-.3-.3-.66-.16-1.03.24-.63.95-.88,1.45-.53.43.3.61.82.41,1.3-.04.1-.1.18-.16.26-.13.16-.16.34-.09.53.06.17.18.24.32.26.02,0,.05,0,.07,0,.05,0,.09,0,.14,0,.18,0,.36,0,.54,0,.15.03.2.13.24.37.02.14.02.28,0,.42-.01.1-.03.2-.06.29,0,.03-.02.06-.03.09-.05.09-.14.16-.23.21-.25.14-.45.32-.52.65-.04.19-.04.35,0,.5.06.21.19.4.35.56.5.52,1.39.42,1.75-.4.02-.04.03-.07.04-.11.11-.38-.04-.83-.37-.96-.24-.09-.38-.24-.45-.45-.04-.11-.05-.24-.05-.38,0-.02,0-.04,0-.06,0-.14,0-.29.03-.43.04-.2.12-.29.28-.31h2.2c.26.05.36.23.37.56v.58s0,.03,0,.04c0,.05,0,.09,0,.14,0,.04,0,.08,0,.11.02.11.07.19.16.24.14.08.28.08.41-.02.11-.09.21-.21.34-.27.04-.02.07-.03.11-.04.55-.16,1.1.25,1.2.89.01.07.02.15.02.23Z"/>
</svg> 