<?xml version="1.0" encoding="UTF-8"?>
<svg id="Layer_1" data-name="Layer 1" xmlns="http://www.w3.org/2000/svg" viewBox="0 0 16 16">
  <defs>
    <style>
      .cls-1 {
        fill: #fff;
      }

      .cls-2 {
        stroke: #000;
        stroke-miterlimit: 10;
        stroke-width: .06px;
      }

      .cls-3 {
        fill: #ff9a00;
      }
    </style>
  </defs>
  <circle class="cls-3" cx="8" cy="8" r="8"/>
  <g>
    <g>
      <path d="M2.84,11.5v-.31s.3-.01.3-.01v.31s0,.01,0,.01h-.3Z"/>
      <path d="M3.13,11.19v.3h-.3v-.3h.3M3.13,11.16h-.3s-.03.01-.03.03v.3s.01.03.03.03h.3s.03-.01.03-.03v-.3s-.01-.03-.03-.03h0Z"/>
    </g>
    <g>
      <polygon points="7.99 13.57 7.78 13.36 7.99 13.13 8.22 13.34 8.01 13.57 8 13.58 7.99 13.57"/>
      <path d="M8,13.14l.21.21-.21.21-.21-.21.21-.21M8,13.12s-.01,0-.02,0l-.21.21s-.01.03,0,.04l.21.21s.01,0,.02,0,.01,0,.02,0l.21-.21s.01-.03,0-.04l-.21-.21s-.01,0-.02,0h0Z"/>
    </g>
    <g>
      <path d="M12.87,11.5v-.31s.3-.01.3-.01v.31s0,.01,0,.01h-.3Z"/>
      <path d="M13.16,11.19v.3h-.3v-.3h.3M13.16,11.16h-.3s-.03.01-.03.03v.3s.01.03.03.03h.3s.03-.01.03-.03v-.3s-.01-.03-.03-.03h0Z"/>
    </g>
    <g>
      <path class="cls-1" d="M2.98,11.36v-.31s.3-.01.3-.01v.31s0,.01,0,.01h-.3Z"/>
      <path d="M3.27,11.05v.3h-.3v-.3h.3M3.27,11.02h-.3s-.03.01-.03.03v.3s.01.03.03.03h.3s.03-.01.03-.03v-.3s-.01-.03-.03-.03h0Z"/>
    </g>
    <g>
      <polygon class="cls-1" points="7.99 13.43 7.78 13.23 7.99 13 8.22 13.21 8.01 13.43 8 13.44 7.99 13.43"/>
      <path d="M8,13.01l.21.21-.21.21-.21-.21.21-.21M8,12.98s-.01,0-.02,0l-.21.21s-.01.03,0,.04l.21.21s.01,0,.02,0,.01,0,.02,0l.21-.21s.01-.03,0-.04l-.21-.21s-.01,0-.02,0h0Z"/>
    </g>
    <g>
      <path class="cls-1" d="M12.73,11.36v-.31s.3-.01.3-.01v.31s0,.01,0,.01h-.3Z"/>
      <path d="M13.02,11.05v.3h-.3v-.3h.3M13.02,11.02h-.3s-.03.01-.03.03v.3s.01.03.03.03h.3s.03-.01.03-.03v-.3s-.01-.03-.03-.03h0Z"/>
    </g>
    <path class="cls-2" d="M15.79,7.59c0,.72-.6,1.36-1.27,1.15-.05-.01-.1-.03-.14-.06-.11-.05-.18-.15-.27-.21-.1-.07-.19-.11-.29-.09-.04,0-.08.02-.12.04-.16.09-.24.23-.23.44,0,.07,0,.15,0,.22v.7s0,0,0,.01c0,.03,0,.05,0,.08h0s0,0,0,0c-.02.23-.17.4-.35.45H2.91c-.26-.02-.38-.18-.38-.49,0-.22,0-.44,0-.66,0-.12,0-.24,0-.36,0-.03,0-.06,0-.09-.05-.28-.32-.45-.56-.32-.06.03-.11.07-.16.11-.47.41-1.09.29-1.42-.29-.12-.21-.17-.43-.17-.64s.05-.41.15-.6c.21-.42.55-.63.98-.61.2,0,.36.11.5.27.13.15.29.2.46.14.13-.05.22-.17.22-.34,0-.02,0-.04,0-.06,0-.05,0-.1,0-.14,0-.13,0-.26,0-.39,0-.1,0-.21,0-.31,0-.28.15-.48.39-.51h2.28c.18.03.24.12.28.39.02.15.02.29,0,.44-.01.1-.03.2-.06.3,0,.03-.02.06-.03.09-.05.1-.14.16-.24.21-.26.14-.46.33-.54.67-.1.46.07.8.34,1.09,0,0,.01.01.02.02.52.54,1.43.43,1.81-.41.18-.41.04-.96-.35-1.11-.18-.07-.31-.18-.4-.31-.03-.05-.05-.1-.07-.15-.04-.11-.06-.24-.05-.39,0-.02,0-.04,0-.06,0-.15,0-.3.03-.45.04-.21.12-.3.29-.32.02,0,.03,0,.05,0,.18,0,.37,0,.55,0,.18,0,.35-.06.43-.25.09-.2.06-.41-.08-.58-.25-.32-.31-.68-.16-1.07.25-.65.98-.91,1.5-.55.45.31.63.85.43,1.35-.04.1-.1.19-.17.27-.13.16-.17.35-.09.55.07.17.19.25.34.27.02,0,.05,0,.08,0,.05,0,.09,0,.14,0,.19,0,.37,0,.55,0,.16.03.21.13.24.38.02.15.02.29,0,.44-.01.1-.03.2-.06.3,0,.03-.02.06-.03.09-.05.1-.14.16-.24.21-.26.14-.46.33-.54.67-.04.19-.04.37,0,.52.06.22.19.41.36.58.52.54,1.43.43,1.81-.41.02-.04.03-.08.04-.12.11-.39-.04-.86-.39-1-.24-.1-.39-.25-.47-.46-.04-.11-.06-.24-.05-.39,0-.02,0-.04,0-.06,0-.15,0-.3.03-.45.04-.21.12-.3.29-.32h2.28c.27.05.37.24.39.58v.6s0,.03,0,.04c0,.05,0,.1,0,.15,0,.04,0,.08,0,.12.02.11.07.2.17.25.14.08.29.09.43-.02.12-.09.22-.22.36-.28.04-.02.07-.03.11-.04.57-.17,1.14.26,1.25.92.01.08.02.16.02.24Z"/>
    <path d="M4.59,11.35s-.05.03-.07.03h-.13v.11s-.01.04-.04.06c-.03.02-.05.03-.07.03h-.37v.11s-.01.04-.04.06c-.03.02-.05.03-.07.03h-.12s-.05-.01-.07-.03c-.03-.02-.04-.04-.04-.06v-.7s.01-.04.04-.06c.03-.02.05-.03.07-.03h.13v-.11s.01-.04.04-.06c.03-.02.05-.03.08-.03h.34s.05,0,.08.02h0s.05.04.05.07v.11h.13s.05.01.07.03c.03.02.04.04.04.06v.31s-.01.04-.04.06ZM4.6,10.99s-.01-.02-.03-.04c-.02-.02-.04-.02-.05-.02h-.16v-.13s-.01-.03-.03-.04c-.02-.01-.04-.02-.06-.02h-.34s-.04,0-.06.02c-.02.01-.03.03-.03.05v.13h-.16s-.03,0-.05.02c-.02.02-.03.03-.03.04v.7s.01.02.03.04c.02.02.04.03.05.03h.12s.03,0,.05-.02c.02-.02.03-.03.03-.04v-.13h.4s.03,0,.05-.02c.02-.02.03-.03.03-.04v-.13h.16s.03,0,.05-.02c.02-.02.03-.03.03-.04v-.31ZM4.55,11.32s-.03.02-.04.02h-.18v.15s0,.02-.02.03c-.01.01-.03.02-.03.02h-.43v.15s0,.01-.02.03c-.02.01-.03.02-.03.02h-.12s-.02,0-.03-.02c-.02-.01-.02-.02-.02-.03v-.7s0-.01.02-.03c.02-.01.03-.02.04-.02h.18v-.15s0-.02.03-.03c.02-.01.03-.02.04-.02h.34s.03,0,.04.02.03.02.03.03v.15h.18s.02,0,.04.02c.02.01.02.02.02.03v.31s0,.01-.02.03ZM4.33,10.94h-.48v.4h.48v-.4ZM3.87,10.96h.43v.36h-.43v-.36ZM3.9,11.29h.37v-.31h-.37v.31Z"/>
    <path d="M5.83,11.55s-.05.03-.07.03h-.13v.11s-.01.04-.04.06c-.03.02-.05.03-.07.03h-.61s-.05-.01-.07-.03c-.03-.02-.04-.04-.04-.06v-.1s.01-.04.04-.06c.03-.02.05-.03.07-.03h.61v-.11h-.37s-.05-.01-.07-.03c-.03-.02-.04-.04-.04-.06v-.11h-.13s-.05-.01-.07-.03c-.03-.02-.04-.04-.04-.06v-.1s.01-.04.04-.06c.03-.02.05-.03.07-.03h.13v-.11s.01-.04.04-.06c.03-.02.05-.03.08-.03h.58s.06,0,.08.03c.03.02.04.04.04.06v.11s-.01.04-.04.06c-.03.02-.05.03-.07.03h-.61v.11h.37s.05.01.07.03c.03.02.04.04.04.06v.11h.13s.05.01.07.03c.03.02.04.04.04.06v.11s-.01.04-.04.06ZM5.84,11.39s-.01-.02-.03-.04-.04-.03-.05-.03h-.16v-.13s-.01-.02-.03-.04c-.02-.02-.04-.03-.05-.03h-.4v-.16h.64s.03,0,.05-.02c.02-.02.03-.03.03-.04v-.11s-.01-.03-.03-.04c-.02-.01-.04-.02-.06-.02h-.58s-.04,0-.06.02c-.02.01-.03.03-.03.05v.13h-.16s-.03,0-.05.03c-.02.02-.03.03-.03.04v.1s.01.03.03.04c.02.02.04.02.05.02h.16v.13s.01.02.03.04c.02.02.04.03.05.03h.4v.16h-.64s-.03,0-.05.02c-.02.02-.03.03-.03.04v.1s.01.02.03.04c.02.02.04.03.05.03h.61s.03,0,.05-.03c.02-.02.03-.03.03-.04v-.13h.16s.03,0,.05-.02c.02-.02.03-.03.03-.04v-.1ZM5.79,11.52s-.03.02-.04.02h-.18v.15s0,.01-.02.03c-.02.01-.03.02-.03.02h-.61s-.02,0-.03-.02c-.02-.01-.02-.02-.02-.03v-.1s0-.02.02-.03c.02-.01.03-.02.04-.02h.66v-.2h-.42s-.02,0-.03-.02c-.02-.01-.02-.02-.02-.03v-.15h-.18s-.02,0-.04-.02c-.02-.01-.02-.02-.02-.03v-.1s0-.02.02-.03c.02-.01.03-.02.03-.02h.18v-.15s0-.02.03-.03c.02-.01.03-.02.04-.02h.58s.03,0,.04.02c.02.01.03.02.03.03v.11s0,.01-.02.03c-.02.01-.03.02-.03.02h-.67v.2h.42s.02,0,.03.02c.02.01.02.02.02.03v.15h.18s.02,0,.04.02c.02.01.02.02.02.03v.11s0,.02-.02.03Z"/>
    <path d="M7.35,11.15s-.05.03-.07.03h-.13v.11s-.01.04-.04.06c-.03.02-.05.03-.08.03h-.13v.31s-.01.04-.04.06c-.03.02-.05.03-.07.03h-.13s-.05-.01-.07-.03c-.03-.02-.04-.04-.04-.06v-.3h-.13s-.05-.01-.08-.03c-.03-.02-.04-.04-.04-.06v-.11h-.13s-.05-.01-.07-.03c-.03-.02-.04-.04-.04-.06v-.3s.01-.04.04-.06.06-.03.08-.03h.1s.06,0,.08.03.04.04.04.06v.31h.63v-.3s.01-.04.04-.06.05-.03.07-.03h.13s.05.01.07.03c.03.02.04.04.04.06v.3s-.01.04-.04.06ZM7.36,10.79s-.01-.02-.03-.04c-.02-.02-.04-.02-.05-.02h-.13s-.03,0-.05.03c-.02.02-.03.03-.03.04v.33h-.69v-.33s-.01-.03-.03-.05c-.02-.01-.04-.02-.06-.02h-.1s-.04,0-.06.02c-.02.01-.03.03-.03.05v.3s.01.02.03.04c.02.02.04.03.05.03h.16v.13s.01.03.03.04c.02.02.04.02.05.02h.16v.33s.01.02.03.04c.02.02.04.03.05.03h.13s.03,0,.05-.02c.02-.02.03-.03.03-.04v-.33h.16s.03,0,.05-.02c.02-.02.03-.03.03-.04v-.13h.16s.03,0,.05-.03c.02-.02.03-.03.03-.04v-.3ZM7.31,11.12s-.03.02-.03.02h-.19v.15s0,.02-.02.03c-.02.01-.03.02-.04.02h-.19v.35s0,.01-.02.03c-.02.01-.03.02-.03.02h-.13s-.02,0-.03-.02c-.02-.01-.03-.02-.03-.03v-.35h-.19s-.02,0-.04-.02c-.02-.01-.02-.02-.02-.03v-.15h-.19s-.02,0-.03-.02c-.02-.01-.02-.02-.02-.03v-.3s0-.02.03-.03c.02-.01.03-.02.04-.02h.1s.03,0,.04.02c.02.01.03.02.03.03v.35h.74v-.35s0-.01.03-.03c.02-.01.03-.02.03-.02h.13s.02,0,.03.02c.02.01.02.02.02.03v.3s0,.01-.02.03Z"/>
    <path d="M8.6,11.55s-.05.03-.07.03h-.13v.11s-.01.04-.04.06c-.03.02-.05.03-.07.03h-.37s-.05-.01-.07-.03c-.03-.02-.04-.04-.04-.06v-.11h-.13s-.05-.01-.07-.03c-.03-.02-.04-.04-.04-.06v-.5s.01-.04.04-.06c.03-.02.05-.03.07-.03h.13v-.11s.01-.04.04-.06c.03-.02.05-.03.08-.03h.34s.05,0,.08.03c.03.02.04.04.04.06v.11h.13s.05.01.07.03c.03.02.04.04.04.06v.11s-.01.04-.04.06-.05.03-.07.03h-.12s-.05-.01-.07-.03c-.03-.02-.04-.04-.04-.06v-.11h-.37v.5h.37v-.11s.01-.04.04-.06c.03-.02.05-.03.07-.03h.12s.05.01.07.03c.03.02.04.04.04.06v.11s-.01.04-.04.06ZM8.61,11.39s-.01-.02-.03-.04c-.02-.02-.04-.03-.05-.03h-.12s-.03,0-.05.03c-.02.02-.03.03-.03.04v.13h-.43v-.56h.43v.13s.01.02.03.04c.02.02.04.03.05.03h.12s.03,0,.05-.03c.02-.02.03-.03.03-.04v-.1s-.01-.02-.03-.04c-.02-.02-.04-.03-.05-.03h-.16v-.13s-.01-.03-.03-.04c-.02-.01-.04-.02-.06-.02h-.34s-.04,0-.06.02c-.02.01-.03.03-.03.05v.13h-.16s-.03,0-.05.03c-.02.02-.03.03-.03.04v.5s.01.03.03.04c.02.02.04.02.05.02h.16v.13s.01.02.03.04c.02.02.04.03.05.03h.37s.03,0,.05-.03c.02-.02.03-.03.03-.04v-.13h.16s.03,0,.05-.02c.02-.02.03-.03.03-.04v-.1ZM8.56,11.52s-.03.02-.04.02h-.18v.15s0,.01-.02.03c-.02.01-.03.02-.03.02h-.37s-.02,0-.03-.02c-.02-.01-.02-.02-.02-.03v-.15h-.18s-.02,0-.04-.02c-.02-.01-.02-.02-.02-.03v-.5s0-.02.02-.03c.02-.01.03-.02.03-.02h.18v-.15s0-.02.03-.03.03-.02.04-.02h.34s.03,0,.04.02.03.02.03.03v.15h.18s.02,0,.04.02c.02.01.02.02.02.03v.1s0,.02-.02.03c-.02.01-.03.02-.04.02h-.12s-.02,0-.03-.02c-.02-.01-.02-.02-.02-.03v-.15h-.48v.59h.48v-.15s0-.02.02-.03c.02-.01.03-.02.03-.02h.12s.02,0,.04.02c.02.01.02.02.02.03v.11s0,.02-.02.03Z"/>
    <path d="M9.86,11.75s-.05.03-.07.03h-.12s-.05-.01-.07-.03c-.03-.02-.04-.04-.04-.06v-.11h-.37v.11s-.01.04-.04.06c-.03.02-.05.03-.07.03h-.13s-.05-.01-.07-.03c-.03-.02-.04-.04-.04-.06v-.7s.01-.04.04-.06c.03-.02.05-.03.07-.03h.13v-.11s.01-.04.04-.06c.03-.02.05-.03.08-.03h.34s.05,0,.08.02h0s.05.04.05.07v.11h.13s.05.01.07.03c.03.02.04.04.04.06v.7s-.01.04-.04.06ZM9.87,10.99s-.01-.02-.03-.04c-.02-.02-.04-.02-.05-.02h-.16v-.13s-.01-.03-.03-.04c-.02-.01-.04-.02-.06-.02h-.34s-.04,0-.06.02c-.02.01-.03.03-.03.05v.13h-.16s-.03,0-.05.02c-.02.02-.03.03-.03.04v.7s.01.02.03.04c.02.02.04.03.05.03h.12s.03,0,.05-.02c.02-.02.03-.03.03-.04v-.13h.43v.13s.01.02.03.04c.02.02.04.03.05.03h.13s.03,0,.05-.02c.02-.02.03-.03.03-.04v-.7ZM9.82,11.72s-.03.02-.04.02h-.13s-.02,0-.03-.02c-.02-.01-.02-.02-.02-.03v-.15h-.48v.15s0,.01-.02.03-.03.02-.03.02h-.12s-.02,0-.03-.02c-.02-.01-.02-.02-.02-.03v-.7s0-.01.02-.03c.02-.01.03-.02.04-.02h.18v-.15s0-.02.03-.03c.02-.01.03-.02.04-.02h.34s.03,0,.04.02.03.02.03.03v.15h.18s.02,0,.04.02c.02.01.02.02.02.03v.7s0,.01-.02.03ZM9.6,10.94h-.48v.4h.48v-.4ZM9.14,10.96h.43v.36h-.43v-.36ZM9.17,11.29h.37v-.31h-.37v.31Z"/>
    <path d="M11.14,11.55s-.05.03-.07.03h-.13v.11s-.01.04-.04.06c-.03.02-.05.03-.07.03h-.61s-.05-.01-.07-.03c-.03-.02-.04-.04-.04-.06v-.9s.01-.04.04-.06c.03-.02.06-.03.08-.03h.58s.05,0,.08.02h0s.05.04.05.07v.11h.13s.05.01.07.03c.03.02.04.04.04.06v.5s-.01.04-.04.06ZM11.14,10.99s-.01-.02-.03-.04c-.02-.02-.04-.03-.05-.03h-.16v-.13s-.01-.03-.03-.04c-.02-.01-.04-.02-.06-.02h-.58s-.04,0-.06.02c-.02.01-.03.03-.03.05v.9s.01.02.03.04c.02.02.04.03.05.03h.61s.03,0,.05-.03c.02-.02.03-.03.03-.04v-.13h.16s.03,0,.05-.02c.02-.02.03-.03.03-.04v-.5ZM11.1,11.52s-.03.02-.04.02h-.18v.15s0,.01-.02.03c-.02.01-.03.02-.03.02h-.61s-.02,0-.03-.02c-.02-.01-.02-.02-.02-.03v-.9s0-.02.03-.03c.02-.01.03-.02.04-.02h.58s.03,0,.04.02.03.02.03.03v.15h.18s.02,0,.04.02c.02.01.02.02.02.03v.5s0,.02-.02.03ZM10.88,10.94h-.48v.59h.48v-.59ZM10.42,10.96h.43v.56h-.43v-.56ZM10.45,11.49h.37v-.5h-.37v.5Z"/>
    <path d="M12.4,11.55s-.05.03-.07.03h-.13v.11s-.01.04-.04.06c-.03.02-.05.03-.07.03h-.61s-.05-.01-.07-.03c-.03-.02-.04-.04-.04-.06v-.9s.01-.04.04-.06c.03-.02.06-.03.08-.03h.58s.05,0,.08.02h0s.05.04.05.07v.11h.13s.05.01.07.03c.03.02.04.04.04.06v.5s-.01.04-.04.06ZM12.41,10.99s-.01-.02-.03-.04c-.02-.02-.04-.03-.05-.03h-.16v-.13s-.01-.03-.03-.04c-.02-.01-.04-.02-.06-.02h-.58s-.04,0-.06.02c-.02.01-.03.03-.03.05v.9s.01.02.03.04c.02.02.04.03.05.03h.61s.03,0,.05-.03c.02-.02.03-.03.03-.04v-.13h.16s.03,0,.05-.02c.02-.02.03-.03.03-.04v-.5ZM12.37,11.52s-.03.02-.04.02h-.18v.15s0,.01-.02.03c-.02.01-.03.02-.03.02h-.61s-.02,0-.03-.02c-.02-.01-.02-.02-.02-.03v-.9s0-.02.03-.03c.02-.01.03-.02.04-.02h.58s.03,0,.04.02.03.02.03.03v.15h.18s.02,0,.04.02c.02.01.02.02.02.03v.5s0,.02-.02.03ZM12.15,10.94h-.48v.59h.48v-.59ZM11.69,10.96h.43v.56h-.43v-.56ZM11.72,11.49h.37v-.5h-.37v.5Z"/>
    <g>
      <path d="M6.46,12.58s-.03.02-.05.02h-.08v.05s0,.02-.02.03c-.02.01-.03.02-.05.02h-.38s-.03,0-.05-.02c-.02-.01-.02-.02-.02-.03v-.05s0-.02.02-.03c.02-.01.03-.02.05-.02h.38v-.05h-.23s-.03,0-.05-.02c-.02-.01-.02-.02-.02-.03v-.05h-.08s-.03,0-.05-.02c-.02-.01-.02-.02-.02-.03v-.05s0-.02.02-.03c.02-.01.03-.02.05-.02h.08v-.05s0-.02.03-.03c.02,0,.03-.01.05-.01h.36s.03,0,.05.01c.02,0,.03.02.03.03v.05s0,.02-.02.03c-.02.01-.03.02-.05.02h-.38v.05h.23s.03,0,.05.02c.02.01.02.02.02.03v.05h.08s.03,0,.05.02c.02.01.02.02.02.03v.05s0,.02-.02.03ZM6.47,12.5s0-.01-.02-.02-.02-.01-.03-.01h-.1v-.07s0-.01-.02-.02c-.01,0-.02-.01-.03-.01h-.25v-.08h.4s.02,0,.03-.01c.01,0,.02-.01.02-.02v-.05s0-.01-.02-.02c-.01,0-.03-.01-.04-.01h-.36s-.03,0-.04.01c-.01,0-.02.01-.02.02v.06h-.1s-.02,0-.03.01c-.01,0-.02.02-.02.02v.05s0,.01.02.02c.01,0,.02.01.03.01h.1v.06s0,.01.02.02c.01,0,.02.01.03.01h.25v.08h-.4s-.02,0-.03.01c-.01,0-.02.01-.02.02v.05s0,.01.02.02c.01,0,.02.01.03.01h.38s.02,0,.03-.01c.01,0,.02-.02.02-.02v-.07h.1s.02,0,.03-.01c.01,0,.02-.01.02-.02v-.05ZM6.44,12.57s-.02,0-.02,0h-.11v.07s0,0-.02.01c-.01,0-.02,0-.02,0h-.38s-.01,0-.02,0c-.01,0-.02-.01-.02-.01v-.05s0,0,.01-.01c0,0,.02,0,.02,0h.42v-.1h-.26s-.01,0-.02,0c-.01,0-.02-.01-.02-.01v-.07h-.11s-.01,0-.02,0c0,0-.01-.01-.01-.01v-.05s0,0,.02-.01c.01,0,.02,0,.02,0h.11v-.07s0,0,.02-.02c.01,0,.02,0,.03,0h.36s.02,0,.03,0c.01,0,.02.01.02.01v.05s0,0-.02.01c-.01,0-.02,0-.02,0h-.42v.1h.26s.01,0,.02,0c.01,0,.02.01.02.01v.08h.11s.01,0,.02,0c0,0,.01.01.01.01v.05s0,0-.01.01Z"/>
      <path d="M7.16,12.29s-.03.02-.05.02h-.12v.35s0,.02-.02.03c-.02.01-.03.02-.04.02h-.08s-.03,0-.05-.02c-.02-.01-.02-.02-.02-.03v-.35h-.12s-.03,0-.05-.02c-.02-.01-.02-.02-.02-.03v-.05s0-.02.03-.03c.02,0,.03-.01.05-.01h.43s.03,0,.05.01h0s.03.02.03.03v.05s0,.02-.02.03ZM7.17,12.2s0-.01-.02-.02c-.01,0-.03-.01-.04-.01h-.43s-.03,0-.04.01c-.01,0-.02.01-.02.02v.05s0,.01.02.02c.01,0,.02.01.03.01h.14v.36s0,.01.02.02c.01,0,.02.01.03.01h.08s.02,0,.03-.01c.01,0,.02-.01.02-.02v-.36h.14s.02,0,.03-.01c.01,0,.02-.01.02-.02v-.05ZM7.14,12.27s-.02,0-.02,0h-.15v.37s0,0-.01.01c0,0-.02,0-.02,0h-.08s-.01,0-.02,0c0,0-.01-.01-.01-.01v-.37h-.15s-.01,0-.02,0c0,0-.01-.01-.01-.01v-.05s0-.01.02-.02c.01,0,.02,0,.03,0h.43s.02,0,.03,0c.01,0,.02.01.02.01v.05s0,0-.01.01Z"/>
      <path d="M7.94,12.58s-.03.02-.05.02h-.08v.05s0,.02-.02.03c-.02.01-.03.02-.05.02h-.23s-.03,0-.04-.02c-.02-.01-.02-.02-.02-.03v-.05h-.08s-.03,0-.05-.02c-.02-.01-.02-.02-.02-.03v-.35s0-.02.03-.03c.02,0,.03-.01.05-.01h.06s.03,0,.05.01c.02,0,.03.02.03.03v.35h.23v-.35s0-.02.02-.03c.02-.01.03-.02.05-.02h.08s.03,0,.05.02c.02.01.02.02.02.03v.35s0,.02-.02.03ZM7.95,12.2s0-.01-.02-.02c-.01,0-.02-.01-.03-.01h-.08s-.02,0-.03.01c-.01,0-.02.02-.02.02v.36h-.27v-.36s0-.01-.02-.02-.03-.01-.04-.01h-.06s-.03,0-.04.01c-.01,0-.02.01-.02.02v.35s0,.01.02.02c.01,0,.02.01.03.01h.1v.06s0,.01.02.02c.01,0,.02.01.03.01h.23s.02,0,.03-.01c.01,0,.02-.02.02-.02v-.07h.1s.02,0,.03-.01c.01,0,.02-.01.02-.02v-.35ZM7.92,12.57s-.02,0-.02,0h-.11v.07s0,0-.02.01c-.01,0-.02,0-.02,0h-.23s-.01,0-.02,0c0,0-.01-.01-.01-.01v-.07h-.11s-.01,0-.02,0c0,0-.01-.01-.01-.01v-.35s0,0,.02-.02c.01,0,.02,0,.03,0h.06s.02,0,.03,0c.01,0,.02.01.02.02v.37h.3v-.37s0,0,.02-.01c.01,0,.02,0,.02,0h.08s.01,0,.02,0c.01,0,.02.01.02.01v.35s0,0-.01.01Z"/>
      <path d="M8.74,12.58s-.03.02-.05.02h-.08v.05s0,.02-.02.03c-.02.01-.03.02-.04.02h-.38s-.03,0-.05-.02c-.02-.01-.02-.02-.02-.03v-.44s0-.02.03-.03c.02,0,.03-.01.05-.01h.36s.03,0,.05.01h0s.03.02.03.03v.05h.08s.03,0,.05.02c.02.01.02.02.02.03v.25s0,.02-.02.03ZM8.75,12.3s0-.01-.02-.02c-.01,0-.02-.01-.03-.01h-.1v-.07s0-.01-.02-.02c-.01,0-.03-.01-.04-.01h-.36s-.03,0-.04.01c-.01,0-.02.01-.02.02v.44s0,.01.02.02c.01,0,.02.01.03.01h.38s.02,0,.03-.01c.01,0,.02-.02.02-.02v-.07h.1s.02,0,.03-.01c.01,0,.02-.01.02-.02v-.25ZM8.72,12.57s-.02,0-.02,0h-.11v.07s0,0-.01.01c0,0-.02,0-.02,0h-.38s-.01,0-.02,0c-.01,0-.02-.01-.02-.01v-.44s0,0,.02-.02c.01,0,.02,0,.03,0h.36s.02,0,.03,0,.02.01.02.01v.08h.11s.01,0,.02,0c0,0,.01.01.01.01v.25s0,0-.01.01ZM8.58,12.28h-.3v.29h.3v-.29ZM8.29,12.29h.27v.27h-.27v-.27ZM8.31,12.55h.23v-.25h-.23v.25Z"/>
      <path d="M9.37,12.68s-.03.02-.04.02h-.37s-.03,0-.04-.02c-.02-.01-.02-.02-.02-.03v-.05s0-.02.02-.03c.02-.01.03-.02.04-.02h.08v-.25h-.08s-.03,0-.04-.02c-.02-.01-.02-.02-.02-.03v-.05s0-.02.02-.03c.02,0,.03-.01.05-.01h.35s.03,0,.05.01h0s.03.02.03.03v.05s0,.02-.02.03c-.02.01-.03.02-.04.02h-.08v.25h.08s.03,0,.04.02c.02.01.02.02.02.03v.05s0,.02-.02.03ZM9.37,12.6s0-.01-.02-.02c-.01,0-.02-.01-.03-.01h-.1v-.28h.1s.02,0,.03-.01c.01,0,.02-.01.02-.02v-.05s0-.01-.02-.02c-.01,0-.03-.01-.04-.01h-.35s-.02,0-.04.01c-.01,0-.02.01-.02.02v.05s0,.01.02.02c.01,0,.02.01.03.01h.1v.28h-.1s-.02,0-.03.01c-.01,0-.02.01-.02.02v.05s0,.01.02.02c.01,0,.02.01.03.01h.37s.02,0,.03-.01c.01,0,.02-.01.02-.02v-.05ZM9.34,12.66s-.02,0-.02,0h-.37s-.01,0-.02-.01c-.01,0-.02-.01-.02-.01v-.05s0,0,.01-.01c0,0,.02,0,.02,0h.11v-.29h-.11s-.01,0-.02-.01c-.01,0-.02-.01-.02-.01v-.05s0-.01.02-.02.02,0,.03,0h.35s.02,0,.03,0c.01,0,.02.01.02.01v.05s0,0-.01.01c0,0-.02,0-.02,0h-.11v.29h.11s.01,0,.02,0c0,0,.01.01.01.01v.05s0,0-.01.01Z"/>
      <path d="M10.16,12.58s-.03.02-.05.02h-.08v.05s0,.02-.02.03c-.02.01-.03.02-.04.02h-.23s-.03,0-.04-.02c-.02-.01-.02-.02-.02-.03v-.05h-.08s-.03,0-.05-.02c-.02-.01-.02-.02-.02-.03v-.25s0-.02.02-.03c.02-.01.03-.02.05-.02h.08v-.05s0-.02.03-.03c.02,0,.03-.01.05-.01h.21s.03,0,.05.01h0s.03.02.03.03v.05h.08s.03,0,.05.02c.02.01.02.02.02.03v.25s0,.02-.02.03ZM10.16,12.3s0-.01-.02-.02c-.01,0-.02-.01-.03-.01h-.1v-.07s0-.01-.02-.02c-.01,0-.03-.01-.04-.01h-.21s-.03,0-.04.01c-.01,0-.02.01-.02.02v.07h-.1s-.02,0-.03.01c-.01,0-.02.02-.02.02v.25s0,.01.02.02c.01,0,.02.01.03.01h.1v.06s0,.01.02.02c.01,0,.02.01.03.01h.23s.02,0,.03-.01c.01,0,.02-.02.02-.02v-.07h.1s.02,0,.03-.01c.01,0,.02-.01.02-.02v-.25ZM10.13,12.57s-.02,0-.02,0h-.11v.07s0,0-.01.01c0,0-.02,0-.02,0h-.23s-.01,0-.02,0c0,0-.01-.01-.01-.01v-.07h-.11s-.01,0-.02,0c0,0-.01-.01-.01-.01v-.25s0,0,.02-.01c.01,0,.02,0,.02,0h.11v-.08s0,0,.02-.02.02,0,.03,0h.21s.02,0,.03,0,.02.01.02.01v.08h.11s.01,0,.02,0c0,0,.01.01.01.01v.25s0,0-.01.01ZM10,12.28h-.3v.29h.3v-.29ZM9.71,12.29h.27v.27h-.27v-.27ZM9.73,12.55h.23v-.25h-.23v.25Z"/>
    </g>
  </g>
</svg>